<svg width="24" height="24" viewBox="0 0 24 24" fill="none" xmlns="http://www.w3.org/2000/svg">
<path d="M11.8281 4C16.2464 4 19.8281 7.58172 19.8281 12C19.8281 16.4183 16.2464 20 11.8281 20C7.40985 20 3.82812 16.4183 3.82812 12C3.82812 7.58172 7.40985 4 11.8281 4ZM15.1836 9.3291C14.9544 9.10368 14.5866 9.10372 14.3574 9.3291L10.5547 13.0752L9.29785 11.8369C9.06858 11.6111 8.69998 11.6111 8.4707 11.8369L7.91406 12.3857C7.67991 12.6165 7.67988 12.9939 7.91406 13.2246L10.1416 15.4189C10.3708 15.6444 10.7386 15.6445 10.9678 15.4189L15.7402 10.7168C15.9744 10.4861 15.9744 10.1086 15.7402 9.87793L15.1836 9.3291Z" fill="#00C358"/>
</svg>
