<svg width="16" height="16" viewBox="0 0 16 16" fill="none" xmlns="http://www.w3.org/2000/svg">
<path d="M8 0C12.4183 0 16 3.58172 16 8C16 12.4183 12.4183 16 8 16C3.58172 16 0 12.4183 0 8C0 3.58172 3.58172 0 8 0ZM11.3555 5.3291C11.1263 5.10368 10.7585 5.10372 10.5293 5.3291L6.72656 9.0752L5.46973 7.83691C5.24046 7.61107 4.87185 7.61108 4.64258 7.83691L4.08594 8.38574C3.85178 8.61645 3.85175 8.99392 4.08594 9.22461L6.31348 11.4189C6.54272 11.6444 6.91047 11.6445 7.13965 11.4189L11.9121 6.7168C12.1463 6.48609 12.1463 6.10862 11.9121 5.87793L11.3555 5.3291Z" fill="#00C358"/>
</svg>
