<svg width="24" height="24" viewBox="0 0 24 24" fill="none" xmlns="http://www.w3.org/2000/svg">
<g clip-path="url(#clip0_10001_3117)">
<g clip-path="url(#clip1_10001_3117)">
<path fill-rule="evenodd" clip-rule="evenodd" d="M18.7351 7.7858L12.3311 4.08914C12.23 4.03074 12.1153 4 11.9985 4C11.8817 4 11.7669 4.03074 11.6658 4.08914L5.2598 7.7858C5.17494 7.83496 5.10447 7.90553 5.05545 7.99047C5.00643 8.07541 4.98057 8.17173 4.98047 8.2698V15.7271C4.98047 15.9271 5.08714 16.1118 5.26047 16.2118L11.6651 19.9098C11.7663 19.9681 11.881 19.9988 11.9978 19.9988C12.1146 19.9988 12.2293 19.9681 12.3305 19.9098L18.7358 16.2118C18.8209 16.1627 18.8916 16.092 18.9407 16.007C18.9898 15.9219 19.0157 15.8254 19.0158 15.7271V8.27047C19.0156 8.17234 18.9897 8.07597 18.9405 7.99102C18.8914 7.90608 18.8208 7.83554 18.7358 7.78647L18.7351 7.7858ZM18.3331 8.5698L12.1498 19.2791C12.1078 19.3511 11.9978 19.3218 11.9978 19.2385V12.2258C11.9977 12.1569 11.9795 12.0892 11.9449 12.0295C11.9104 11.9698 11.8608 11.9203 11.8011 11.8858L5.7278 8.37914C5.65647 8.3378 5.6858 8.22714 5.76914 8.22714H18.1358C18.3118 8.22714 18.4211 8.4178 18.3331 8.5698Z" fill="black"/>
</g>
</g>
<defs>
<clipPath id="clip0_10001_3117">
<rect width="24" height="24" fill="white"/>
</clipPath>
<clipPath id="clip1_10001_3117">
<rect width="16" height="16" fill="white" transform="translate(4 4)"/>
</clipPath>
</defs>
</svg>
