<svg width="24" height="24" viewBox="0 0 24 24" fill="none" xmlns="http://www.w3.org/2000/svg">
<path fill-rule="evenodd" clip-rule="evenodd" d="M11.2073 5.24514H9.37077C8.35646 5.24514 7.5342 6.0674 7.5342 7.08171C7.5342 8.09602 8.35646 8.91828 9.37077 8.91828H11.2073V5.24514ZM11.2073 4H12.4525H14.2891C15.9911 4 17.3707 5.37972 17.3707 7.08171C17.3707 8.08609 16.8903 8.97825 16.1466 9.54085C16.8903 10.1035 17.3707 10.9956 17.3707 12C17.3707 13.702 15.9911 15.0817 14.2891 15.0817C13.6009 15.0817 12.9654 14.8561 12.4525 14.4749V15.0817V16.9183C12.4525 18.6203 11.0727 20 9.37077 20C7.66878 20 6.28906 18.6203 6.28906 16.9183C6.28906 15.9138 6.76954 15.0218 7.51318 14.4591C6.76954 13.8965 6.28906 13.0044 6.28906 12C6.28906 10.9956 6.76955 10.1035 7.5132 9.54086C6.76955 8.97825 6.28906 8.08609 6.28906 7.08171C6.28906 5.37972 7.66878 4 9.37077 4H11.2073ZM12.4525 5.24514V8.91828H14.2891C15.3034 8.91828 16.1256 8.09602 16.1256 7.08171C16.1256 6.0674 15.3034 5.24514 14.2891 5.24514H12.4525ZM9.37077 13.8366H11.2073V12.0047V12V11.9953V10.1634H9.37077C8.35646 10.1634 7.5342 10.9857 7.5342 12C7.5342 13.0119 8.35252 13.8326 9.36349 13.8366L9.37077 13.8366ZM7.5342 16.9183C7.5342 15.9064 8.35252 15.0856 9.36349 15.0817L9.37077 15.0817H11.2073V16.9183C11.2073 17.9326 10.3851 18.7549 9.37077 18.7549C8.35646 18.7549 7.5342 17.9326 7.5342 16.9183ZM12.4525 11.9963C12.4545 10.9837 13.276 10.1634 14.2891 10.1634C15.3034 10.1634 16.1256 10.9857 16.1256 12C16.1256 13.0143 15.3034 13.8366 14.2891 13.8366C13.276 13.8366 12.4545 13.0163 12.4525 12.0037V11.9963Z" fill="url(#paint0_linear_10001_3113)"/>
<defs>
<linearGradient id="paint0_linear_10001_3113" x1="5.5" y1="4" x2="5.5" y2="20" gradientUnits="userSpaceOnUse">
<stop stop-color="#FF0026"/>
<stop offset="0.204864" stop-color="#FF6717"/>
<stop offset="0.399657" stop-color="#904BFF"/>
<stop offset="0.59986" stop-color="#00B9FF"/>
<stop offset="0.800063" stop-color="#00CF66"/>
</linearGradient>
</defs>
</svg>
