<svg width="24" height="24" viewBox="0 0 24 24" fill="none" xmlns="http://www.w3.org/2000/svg">
<g clip-path="url(#clip0_10001_1649)">
<mask id="mask0_10001_1649" style="mask-type:luminance" maskUnits="userSpaceOnUse" x="3" y="3" width="17" height="17">
<path d="M19.8281 3.99902H3.82812V19.6725H19.8281V3.99902Z" fill="white"/>
</mask>
<g mask="url(#mask0_10001_1649)">
<path d="M10.5938 15.3272C8.53124 15.0771 7.07812 13.5928 7.07812 11.6709C7.07812 10.8897 7.35937 10.0459 7.82812 9.4834C7.62501 8.96777 7.65626 7.87403 7.89062 7.4209C8.51562 7.34278 9.35937 7.67089 9.85937 8.12402C10.4531 7.93653 11.0781 7.84278 11.8437 7.84278C12.6094 7.84278 13.2344 7.93653 13.7969 8.1084C14.2813 7.67089 15.1406 7.34278 15.7656 7.4209C15.9844 7.84278 16.0156 8.93653 15.8125 9.46777C16.3125 10.0615 16.5781 10.8584 16.5781 11.6709C16.5781 13.5928 15.125 15.0459 13.0312 15.3115C13.5625 15.6553 13.9219 16.4053 13.9219 17.2647V18.8897C13.9219 19.3584 14.3125 19.624 14.7813 19.4365C17.6094 18.3584 19.8281 15.5303 19.8281 12.0303C19.8281 7.60839 16.2344 3.99902 11.8125 3.99902C7.39062 3.99902 3.82813 7.60839 3.82813 12.0303C3.82812 15.499 6.03124 18.374 8.99999 19.4521C9.42187 19.6084 9.82812 19.3272 9.82812 18.9053V17.6553C9.60938 17.749 9.32812 17.8115 9.07812 17.8115C8.04687 17.8115 7.4375 17.249 6.99999 16.2021C6.82812 15.7803 6.64063 15.5303 6.28125 15.4834C6.09376 15.4678 6.03124 15.3897 6.03124 15.2959C6.03124 15.1084 6.34375 14.9678 6.65626 14.9678C7.10938 14.9678 7.49999 15.249 7.90625 15.8272C8.21875 16.2803 8.54687 16.4834 8.9375 16.4834C9.32812 16.4834 9.57812 16.3428 9.9375 15.9834C10.2031 15.7178 10.4062 15.4834 10.5938 15.3272Z" fill="black"/>
</g>
</g>
<defs>
<clipPath id="clip0_10001_1649">
<rect width="16" height="15.6735" fill="white" transform="translate(3.82812 4)"/>
</clipPath>
</defs>
</svg>
