<svg width="24" height="24" viewBox="0 0 24 24" fill="none" xmlns="http://www.w3.org/2000/svg">
<g clip-path="url(#clip0_10001_5119)">
<rect x="4.59259" y="4.59259" width="14.8148" height="14.8148" rx="2.37037" stroke="#0069C9" stroke-width="1.18519"/>
<path d="M16.0072 16.3119V13.0961C16.0072 11.373 15.1281 10.5714 13.9559 10.5714C13.0102 10.5714 12.5865 11.1156 12.3502 11.4978V10.7034H10.5684C10.5919 11.2296 10.5684 16.3119 10.5684 16.3119H12.3502V13.1795C12.3502 13.0121 12.3617 12.8447 12.4092 12.7253C12.5377 12.3905 12.8308 12.0438 13.3228 12.0438C13.9679 12.0438 14.2254 12.5579 14.2254 13.3115V16.3119H16.0072ZM8.69143 9.93788C9.3125 9.93788 9.6996 9.50711 9.6996 8.96834C9.68813 8.41817 9.3125 8 8.7029 8C8.0933 8 7.69531 8.41817 7.69531 8.96834C7.69531 9.50651 8.08241 9.93788 8.67996 9.93788H8.69143ZM9.58203 16.3119V10.7034H7.80083V16.3119H9.58203Z" fill="#0069C9"/>
</g>
<defs>
<clipPath id="clip0_10001_5119">
<rect width="24" height="24" fill="white"/>
</clipPath>
</defs>
</svg>
