<svg width="24" height="24" viewBox="0 0 24 24" fill="none" xmlns="http://www.w3.org/2000/svg">
<rect width="16" height="16" transform="translate(3.82812 4)" fill="#020202"/>
<path d="M12.8721 8.28223C14.4675 8.28223 15.7616 9.57551 15.7617 11.1709V11.3096H17.1484V12.6855H15.7617V12.8223C15.7615 14.4174 14.4682 15.7107 12.873 15.7109H11.084C9.48871 15.7108 8.19551 14.4175 8.19531 12.8223V12.6846H6.82812V11.3096H8.19531V11.1709C8.19543 9.57558 9.48867 8.28234 11.084 8.28223H12.8721ZM11.0918 9.65723C10.2561 9.65723 9.57812 10.3352 9.57812 11.1709V12.8213C9.57815 13.657 10.2561 14.335 11.0918 14.335H12.8799C13.7155 14.3349 14.3926 13.6569 14.3926 12.8213V11.1709C14.3926 10.3352 13.7155 9.65732 12.8799 9.65723H11.0918Z" fill="white"/>
</svg>
