<svg width="24" height="24" viewBox="0 0 24 24" fill="none" xmlns="http://www.w3.org/2000/svg">
<rect x="4" y="4" width="16" height="16" rx="8" fill="#676B74"/>
<path d="M12 8.49609C13.9351 8.49609 15.5038 10.011 15.5039 11.8799C15.5039 12.9617 14.9782 13.9245 14.1602 14.5439H15.5205V15.5361H12.7686V14.2012C13.7708 13.8851 14.4961 12.9694 14.4961 11.8877C14.4959 10.5447 13.3784 9.45605 12 9.45605C10.6218 9.4563 9.50413 10.5449 9.50391 11.8877C9.50391 12.9696 10.2298 13.8852 11.2324 14.2012V15.5361H8.48047V14.5439H9.84082C9.02254 13.9245 8.49609 12.9618 8.49609 11.8799C8.49621 10.0112 10.0651 8.49634 12 8.49609Z" fill="#FAFAFB"/>
</svg>
