<svg width="24" height="24" viewBox="0 0 24 24" fill="none" xmlns="http://www.w3.org/2000/svg">
<g clip-path="url(#clip0_10001_3129)">
<path fill-rule="evenodd" clip-rule="evenodd" d="M13.5013 9.5H17.2507C17.3093 9.5 17.368 9.504 17.424 9.512L13.5107 13.4253C13.5023 13.3668 13.4981 13.3078 13.498 13.2487V9.5H11.998V13.2487C11.9979 13.6098 12.069 13.9675 12.2072 14.3011C12.3453 14.6348 12.5479 14.938 12.8033 15.1934C13.0586 15.4488 13.3618 15.6513 13.6955 15.7895C14.0292 15.9277 14.3868 15.9988 14.748 15.9987H18.4973V14.4987H14.748C14.688 14.4987 14.6287 14.4947 14.5713 14.4867L18.4873 10.57C18.4961 10.6296 18.5005 10.6898 18.5007 10.75V14.4987H20V10.7493C20 10.3883 19.9289 10.0308 19.7907 9.69721C19.6526 9.36364 19.45 9.06056 19.1947 8.80526C18.9394 8.54996 18.6364 8.34745 18.3028 8.20928C17.9692 8.07111 17.6117 8 17.2507 8H13.5013V9.5ZM4 9V9.004L9.124 15.5293C9.74 16.3133 10.9993 15.878 10.9993 14.8807V9H9.5V13.58L5.904 9H4Z" fill="#0D0D0D"/>
</g>
<defs>
<clipPath id="clip0_10001_3129">
<rect width="24" height="24" fill="white"/>
</clipPath>
</defs>
</svg>
