<svg width="16" height="8" viewBox="0 0 16 8" fill="none" xmlns="http://www.w3.org/2000/svg">
<path fill-rule="evenodd" clip-rule="evenodd" d="M9.50133 1.5H13.2507C13.3093 1.5 13.368 1.504 13.424 1.512L9.51067 5.42533C9.5023 5.36681 9.49807 5.30778 9.498 5.24867V1.5H7.998V5.24867C7.99791 5.60983 8.06898 5.96746 8.20715 6.30115C8.34532 6.63483 8.54788 6.93803 8.80326 7.1934C9.05864 7.44878 9.36183 7.65134 9.69552 7.78951C10.0292 7.92768 10.3868 7.99875 10.748 7.99867H14.4973V6.49867H10.748C10.688 6.49867 10.6287 6.49467 10.5713 6.48667L14.4873 2.57C14.4961 2.62961 14.5005 2.68976 14.5007 2.75V6.49867H16V2.74933C16 2.38829 15.9289 2.03077 15.7907 1.69721C15.6526 1.36364 15.45 1.06056 15.1947 0.805261C14.9394 0.549962 14.6364 0.347448 14.3028 0.209281C13.9692 0.0711137 13.6117 0 13.2507 0H9.50133V1.5ZM0 1V1.004L5.124 7.52933C5.74 8.31333 6.99933 7.878 6.99933 6.88067V1H5.5V5.58L1.904 1H0Z" fill="white"/>
</svg>
