<svg width="24" height="24" viewBox="0 0 24 24" fill="none" xmlns="http://www.w3.org/2000/svg">
<g clip-path="url(#clip0_10001_3135)">
<path d="M8.29219 5.72656H15.3547C16.8672 5.72656 18.0922 6.95156 18.0922 8.46406V15.5266C18.0922 17.0391 16.8672 18.2641 15.3547 18.2641H8.29219C6.77969 18.2641 5.55469 17.0391 5.55469 15.5266V8.46406C5.55469 6.95156 6.77969 5.72656 8.29219 5.72656Z" fill="url(#paint0_linear_10001_3135)"/>
<path d="M15.1438 6.39844H8.50625C7.24375 6.39844 6.21875 7.42344 6.21875 8.68594V15.3234C6.21875 16.5859 7.24375 17.6109 8.50625 17.6109H15.1438C16.4062 17.6109 17.4313 16.5859 17.4313 15.3234V8.67344C17.4313 7.41094 16.4062 6.39844 15.1438 6.39844ZM17.2438 15.3484C17.2438 16.4984 16.3187 17.4234 15.1687 17.4234H8.48125C7.34375 17.4234 6.40625 16.4984 6.40625 15.3484V8.64844C6.40625 7.49844 7.33125 6.57344 8.48125 6.57344H15.1813C16.3188 6.57344 17.2563 7.49844 17.2563 8.64844V15.3484H17.2438Z" fill="white"/>
<path d="M11.8438 6.85156C9.01875 6.85156 6.71875 9.15156 6.71875 11.9766C6.71875 14.8016 9.01875 17.1016 11.8438 17.1016C14.6813 17.1016 16.9688 14.8016 16.9688 11.9766C16.9688 9.15156 14.6687 6.85156 11.8438 6.85156ZM11.8438 17.0266C9.05625 17.0266 6.79375 14.7641 6.79375 11.9766C6.79375 9.18906 9.05625 6.92656 11.8438 6.92656C14.6312 6.92656 16.8938 9.18906 16.8938 11.9766C16.8938 14.7641 14.6312 17.0266 11.8438 17.0266Z" fill="#69C5F3"/>
<path d="M11.8375 7.89844C9.575 7.89844 7.75 9.72344 7.75 11.9859C7.75 14.2484 9.575 16.0609 11.8375 16.0609C14.1 16.0609 15.925 14.2359 15.925 11.9734C15.925 9.71094 14.0875 7.89844 11.8375 7.89844ZM11.8375 15.9734C9.625 15.9734 7.8375 14.1859 7.8375 11.9734C7.8375 9.76094 9.625 7.97344 11.8375 7.97344C14.05 7.97344 15.8375 9.76094 15.8375 11.9734C15.8375 14.1859 14.0375 15.9734 11.8375 15.9734Z" fill="#68C5F4"/>
<path d="M7.92699 12.9141H15.727C16.052 12.9141 16.302 13.1766 16.302 13.4891C16.302 13.8141 16.0395 14.0641 15.727 14.0641H7.92699C7.60199 14.0641 7.35199 13.8016 7.35199 13.4891C7.33949 13.1766 7.60199 12.9141 7.92699 12.9141Z" fill="white"/>
<path d="M7.9 13.0234H15.725C15.975 13.0234 16.1875 13.2234 16.1875 13.4859V13.4984C16.1875 13.7484 15.9875 13.9609 15.725 13.9609H7.9C7.65 13.9609 7.4375 13.7609 7.4375 13.4984V13.4734C7.45 13.2234 7.65 13.0234 7.9 13.0234Z" fill="#0A93E9"/>
<path d="M7.71875 13.9125H15.9313L15.9938 13.875H7.65625L7.71875 13.9125Z" fill="#1694EA"/>
<path d="M7.525 13.7641H16.1L16.125 13.7266H7.5L7.525 13.7641Z" fill="#319DEC"/>
<path d="M7.45312 13.5266H16.1906V13.4766H7.45312V13.5266Z" fill="#65B1EE"/>
<path d="M7.54063 13.2109H16.1156L16.1281 13.2359L16.1406 13.2609H7.51562L7.52813 13.2359L7.54063 13.2109Z" fill="#8EC6F3"/>
<path d="M7.73125 13.0625H15.9313L15.9688 13.075L16.0063 13.1H7.65625L7.69375 13.075L7.73125 13.0625Z" fill="#95CAF3"/>
<path d="M15.5 13.0234H15.4375C15.4375 13.0234 15.65 13.1734 15.65 13.5109C15.65 13.8234 15.4375 13.9609 15.4375 13.9609H15.5C15.5 13.9609 15.7125 13.8609 15.7125 13.5109C15.7125 13.1359 15.5 13.0234 15.5 13.0234Z" fill="url(#paint1_linear_10001_3135)"/>
<path d="M14.9062 13.0234H14.8438C14.8438 13.0234 15.0312 13.1984 15.0312 13.5109C15.0312 13.7859 14.8438 13.9609 14.8438 13.9609H14.9062C14.9062 13.9609 15.0938 13.8234 15.0938 13.5109C15.0812 13.1734 14.9062 13.0234 14.9062 13.0234Z" fill="url(#paint2_linear_10001_3135)"/>
<path d="M11.7891 13.0234H11.8516V13.9609H11.7891V13.0234Z" fill="url(#paint3_linear_10001_3135)"/>
<path d="M11.1813 13.0234H11.2438C11.2438 13.0234 11.2188 13.2609 11.2188 13.5109C11.2188 13.7359 11.2438 13.9609 11.2438 13.9609H11.1813C11.1813 13.9609 11.1562 13.7359 11.1562 13.5109C11.1562 13.2609 11.1813 13.0234 11.1813 13.0234Z" fill="url(#paint4_linear_10001_3135)"/>
<path d="M10.5781 13.0234H10.6406C10.6406 13.0234 10.5781 13.2609 10.5781 13.5109C10.5781 13.7359 10.6406 13.9609 10.6406 13.9609H10.5781C10.5781 13.9609 10.5156 13.7359 10.5156 13.5109C10.5156 13.2609 10.5781 13.0234 10.5781 13.0234Z" fill="url(#paint5_linear_10001_3135)"/>
<path d="M9.9625 13.0234H10.025C10.025 13.0234 9.9375 13.2609 9.9375 13.5109C9.9375 13.7359 10.025 13.9609 10.025 13.9609H9.9625C9.9625 13.9609 9.875 13.7359 9.875 13.5109C9.875 13.2609 9.9625 13.0234 9.9625 13.0234Z" fill="url(#paint6_linear_10001_3135)"/>
<path d="M9.35156 13.0234H9.41406C9.41406 13.0234 9.28906 13.2234 9.28906 13.5109C9.28906 13.7609 9.41406 13.9609 9.41406 13.9609H9.35156C9.35156 13.9609 9.22656 13.7609 9.22656 13.5109C9.22656 13.2234 9.35156 13.0234 9.35156 13.0234Z" fill="url(#paint7_linear_10001_3135)"/>
<path d="M8.74219 13.0234H8.80469C8.80469 13.0234 8.61719 13.1984 8.61719 13.5109C8.61719 13.7859 8.80469 13.9609 8.80469 13.9609H8.74219C8.74219 13.9609 8.55469 13.8234 8.55469 13.5109C8.56719 13.1734 8.74219 13.0234 8.74219 13.0234Z" fill="url(#paint8_linear_10001_3135)"/>
<path d="M8.14219 13.0234H8.20469C8.20469 13.0234 7.99219 13.1734 7.99219 13.5109C7.99219 13.8234 8.20469 13.9609 8.20469 13.9609H8.14219C8.14219 13.9609 7.92969 13.8609 7.92969 13.5109C7.92969 13.1359 8.14219 13.0234 8.14219 13.0234Z" fill="url(#paint9_linear_10001_3135)"/>
<path d="M11.5783 8.26342L15.4783 15.0134C15.6408 15.2884 15.5408 15.6384 15.2658 15.8009C14.9908 15.9634 14.6408 15.8634 14.4783 15.5884L10.5783 8.83842C10.4158 8.56342 10.5158 8.21342 10.7908 8.05092C11.0658 7.88842 11.4158 7.98842 11.5783 8.26342Z" fill="white"/>
<path d="M11.4786 8.31334L15.3911 15.0883C15.5161 15.3008 15.4411 15.5883 15.2286 15.7133L15.2036 15.7258C14.9911 15.8508 14.7036 15.7758 14.5786 15.5633L10.6661 8.77584C10.5411 8.56334 10.6161 8.27584 10.8286 8.15084L10.8411 8.13834C11.0661 8.01334 11.3536 8.08834 11.4786 8.31334Z" fill="url(#paint10_linear_10001_3135)"/>
<path d="M10.6016 8.58672L14.7016 15.6992L14.7266 15.7117L14.7516 15.7242L14.7766 15.7367L10.6016 8.51172V8.58672Z" fill="url(#paint11_linear_10001_3135)"/>
<path d="M10.6406 8.35L14.9281 15.775H14.9781L10.6656 8.3125L10.6531 8.3375L10.6406 8.35Z" fill="url(#paint12_linear_10001_3135)"/>
<path d="M10.8125 8.16172L15.1875 15.7242L15.225 15.6992L10.85 8.13672L10.8125 8.16172Z" fill="url(#paint13_linear_10001_3135)"/>
<path d="M11.125 8.08672L15.4 15.4992L15.3875 15.5242L15.375 15.5492L11.0625 8.07422H11.0875L11.125 8.08672Z" fill="url(#paint14_linear_10001_3135)"/>
<path d="M11.3563 8.1625L15.4563 15.2625V15.3375L11.2812 8.125L11.3063 8.1375L11.3313 8.15L11.3563 8.1625Z" fill="url(#paint15_linear_10001_3135)"/>
<path d="M15.2625 14.8641L15.2375 14.8141C15.2375 14.8141 15.2125 15.0641 14.9375 15.2391C14.675 15.4016 14.4375 15.2891 14.4375 15.2891L14.4625 15.3391C14.4625 15.3391 14.6625 15.4766 14.9625 15.2891C15.2625 15.1141 15.2625 14.8641 15.2625 14.8641ZM14.95 14.3391L14.925 14.2891C14.925 14.2891 14.8625 14.5391 14.6 14.6891C14.3625 14.8391 14.125 14.7641 14.125 14.7641L14.15 14.8141C14.15 14.8141 14.3625 14.9016 14.6375 14.7391C14.9125 14.5766 14.95 14.3391 14.95 14.3391Z" fill="#3C98EA"/>
<path d="M14.6531 13.8117L14.6281 13.7617C14.6281 13.7617 14.5156 13.9742 14.2781 14.1117C14.0656 14.2367 13.8281 14.2367 13.8281 14.2367L13.8531 14.2867C13.8531 14.2867 14.0781 14.2867 14.3031 14.1617C14.5406 14.0242 14.6531 13.8117 14.6531 13.8117Z" fill="#4CA4ED"/>
<path d="M14.3531 13.2883L14.3281 13.2383C14.3281 13.2383 14.1656 13.4508 13.9531 13.5633C13.7531 13.6758 13.5156 13.7133 13.5156 13.7133L13.5406 13.7633C13.5406 13.7633 13.7781 13.7258 13.9781 13.6133C14.1781 13.5008 14.3531 13.2883 14.3531 13.2883Z" fill="#4DA7EE"/>
<path d="M13.1125 11.1641L13.1375 11.2141C13.1375 11.2141 12.925 11.3141 12.7125 11.4266C12.5125 11.5391 12.3375 11.6891 12.3375 11.6891L12.3125 11.6391C12.3125 11.6391 12.5 11.4891 12.6875 11.3766C12.9 11.2641 13.1125 11.1641 13.1125 11.1641Z" fill="url(#paint16_linear_10001_3135)"/>
<path d="M12.8156 10.6367L12.8406 10.6867C12.8406 10.6867 12.6031 10.7617 12.4031 10.8867C12.2031 10.9992 12.0406 11.1742 12.0406 11.1742L12.0156 11.1242C12.0156 11.1242 12.1781 10.9492 12.3781 10.8367C12.5781 10.6992 12.8156 10.6367 12.8156 10.6367Z" fill="url(#paint17_linear_10001_3135)"/>
<path d="M12.2549 10.2266C12.4174 10.1766 12.5424 10.1516 12.5424 10.1516L12.5174 10.1016C12.5174 10.1016 12.4049 10.1141 12.2799 10.1641C12.2049 10.1891 12.1924 10.2516 12.2549 10.2266Z" fill="#9DD4F7"/>
<path d="M11.9016 9.06285L11.9266 9.11285C11.9266 9.11285 11.6891 9.05035 11.4141 9.20035C11.1766 9.35035 11.1266 9.58785 11.1266 9.58785L11.1016 9.53785C11.1016 9.53785 11.1266 9.32535 11.3891 9.16285C11.6641 8.98785 11.9016 9.06285 11.9016 9.06285Z" fill="url(#paint18_linear_10001_3135)"/>
<path d="M11.6021 8.52566L11.6396 8.57566C11.6396 8.57566 11.3896 8.47566 11.1021 8.63816C10.8271 8.81316 10.8271 9.05066 10.8271 9.05066L10.7896 9.00066C10.7896 9.00066 10.7646 8.78816 11.0646 8.60066C11.3771 8.41316 11.6021 8.52566 11.6021 8.52566Z" fill="url(#paint19_linear_10001_3135)"/>
<path d="M10.7658 12.9119C11.8533 11.0369 13.1033 8.86186 13.1033 8.86186C13.2658 8.58686 13.1658 8.23686 12.8908 8.07436C12.6158 7.91186 12.2658 8.01186 12.1033 8.28686C12.1033 8.28686 10.5783 10.9369 9.42827 12.9119H10.7658ZM10.0908 14.0619C9.56577 14.9619 9.20327 15.6119 9.20327 15.6119C9.04077 15.8869 8.69077 15.9869 8.41577 15.8244C8.14077 15.6619 8.04077 15.3119 8.20327 15.0369C8.20327 15.0369 8.41577 14.6494 8.75327 14.0744C9.17827 14.0619 9.95327 14.0619 10.0908 14.0619Z" fill="white"/>
<path d="M10.6286 12.9122C11.7286 11.0122 13.0036 8.79972 13.0036 8.79972C13.1286 8.58722 13.0536 8.29972 12.8411 8.17472L12.8286 8.16222C12.6161 8.03722 12.3286 8.11222 12.2036 8.32472C12.2036 8.32472 10.7036 10.9247 9.55362 12.9122H10.6286ZM9.96612 14.0622C9.46612 14.9372 9.10362 15.5622 9.10362 15.5622C8.97862 15.7747 8.70362 15.8497 8.47862 15.7247H8.45362C8.24112 15.5997 8.16612 15.3247 8.29112 15.0997C8.29112 15.0997 8.52862 14.6872 8.89112 14.0622H9.96612Z" fill="url(#paint20_linear_10001_3135)"/>
<path d="M10.5906 12.9141L13.0781 8.61406V8.53906C13.0781 8.53906 11.7031 10.9266 10.5531 12.9141H10.5906ZM9.91563 14.0641L8.96562 15.7141L8.92812 15.7391L8.89062 15.7516C8.89062 15.7516 9.31562 15.0141 9.86562 14.0641H9.91563Z" fill="url(#paint21_linear_10001_3135)"/>
<path d="M10.4 12.9117L13.025 8.37422L13.0125 8.34922L13 8.32422C13 8.32422 11.5625 10.8117 10.3625 12.8992L10.4 12.9117ZM9.7375 14.0617L8.7375 15.7867H8.6875C8.6875 15.7867 9.1125 15.0492 9.6875 14.0492C9.7125 14.0617 9.7375 14.0617 9.7375 14.0617Z" fill="url(#paint22_linear_10001_3135)"/>
<path d="M10.1281 12.9141C11.3656 10.7766 12.8531 8.18906 12.8531 8.18906L12.8156 8.16406L10.0656 12.9141H10.1281ZM9.45312 14.0766C8.90312 15.0391 8.49062 15.7516 8.49062 15.7516L8.45312 15.7266C8.45312 15.7266 8.85312 15.0266 9.40312 14.0766C9.42812 14.0641 9.41562 14.0641 9.45312 14.0766Z" fill="url(#paint23_linear_10001_3135)"/>
<path d="M9.82812 12.9141C11.0656 10.7766 12.6031 8.10156 12.6031 8.10156H12.5531C12.5531 8.10156 11.0156 10.7641 9.77812 12.9141H9.82812ZM9.10313 14.0641C8.60313 14.9266 8.26562 15.5141 8.26562 15.5141L8.27812 15.5391L8.29063 15.5641C8.29063 15.5641 8.65313 14.9391 9.16563 14.0641H9.10313Z" fill="url(#paint24_linear_10001_3135)"/>
<path d="M9.63906 12.9109L12.3891 8.14844L12.3641 8.16094L12.3391 8.17344L12.3266 8.18594C12.3266 8.18594 10.8016 10.8234 9.60156 12.9109H9.63906ZM8.97656 14.0609C8.53906 14.8234 8.22656 15.3609 8.22656 15.3609V15.2609C8.22656 15.2609 8.50156 14.7859 8.92656 14.0484C8.95156 14.0609 8.95156 14.0609 8.97656 14.0609Z" fill="url(#paint25_linear_10001_3135)"/>
<path d="M12.0797 8.52372L12.0547 8.57372C12.0547 8.57372 12.2797 8.46122 12.5797 8.62372C12.8547 8.77372 12.8672 9.03622 12.8672 9.03622L12.8922 8.98622C12.8922 8.98622 12.9172 8.74872 12.6047 8.57372C12.2922 8.39872 12.0797 8.52372 12.0797 8.52372Z" fill="url(#paint26_linear_10001_3135)"/>
<path d="M11.775 9.06259L11.75 9.11259C11.75 9.11259 12 9.03759 12.2625 9.18759C12.5125 9.32509 12.5625 9.56259 12.5625 9.56259L12.5875 9.51259C12.5875 9.51259 12.5625 9.28759 12.2875 9.13759C12 8.97509 11.775 9.06259 11.775 9.06259Z" fill="url(#paint27_linear_10001_3135)"/>
<path d="M11.4625 9.58594L11.4375 9.63594C11.4375 9.63594 11.6625 9.62344 11.9125 9.77344C12.1375 9.89844 12.25 10.0984 12.25 10.0984L12.275 10.0484C12.275 10.0484 12.1625 9.84844 11.9375 9.72344C11.7 9.58594 11.4625 9.58594 11.4625 9.58594Z" fill="url(#paint28_linear_10001_3135)"/>
<path d="M11.1656 10.125L11.1406 10.175C11.1406 10.175 11.3906 10.2125 11.6031 10.3375C11.8031 10.45 11.9531 10.6375 11.9531 10.6375L11.9781 10.5875C11.9781 10.5875 11.8281 10.4 11.6281 10.2875C11.4156 10.1625 11.1656 10.125 11.1656 10.125Z" fill="url(#paint29_linear_10001_3135)"/>
<path d="M10.8531 10.6484L10.8281 10.6984C10.8281 10.6984 11.0656 10.7609 11.2781 10.8859C11.4781 10.9984 11.6406 11.1609 11.6406 11.1609L11.6656 11.1109C11.6656 11.1109 11.5031 10.9484 11.3031 10.8359C11.1031 10.7234 10.8531 10.6484 10.8531 10.6484Z" fill="url(#paint30_linear_10001_3135)"/>
<path d="M10.5531 11.1758L10.5156 11.2258C10.5156 11.2258 10.7406 11.3133 10.9531 11.4383C11.1531 11.5508 11.3281 11.6883 11.3281 11.6883L11.3531 11.6383C11.3531 11.6383 11.1781 11.5008 10.9781 11.3883C10.7781 11.2758 10.5531 11.1758 10.5531 11.1758Z" fill="url(#paint31_linear_10001_3135)"/>
<path d="M10.2188 11.7609L10.2438 11.7109L11.0563 12.1734L11.0312 12.2234L10.2188 11.7609Z" fill="url(#paint32_linear_10001_3135)"/>
<path d="M9.91406 12.3L9.93906 12.25C9.93906 12.25 10.1391 12.4 10.3516 12.5125C10.5516 12.625 10.7516 12.7125 10.7516 12.7125L10.7266 12.75C10.7266 12.75 10.5141 12.6625 10.3141 12.55C10.1016 12.4375 9.91406 12.3 9.91406 12.3Z" fill="url(#paint33_linear_10001_3135)"/>
<path d="M9.71719 12.9109C9.65469 12.8609 9.61719 12.8234 9.61719 12.8234L9.64219 12.7734C9.64219 12.7734 9.71719 12.8359 9.81719 12.9109H9.71719Z" fill="#73B9F1"/>
<path d="M9.23125 14.0625C9.28125 14.1 9.33125 14.1375 9.39375 14.175C9.61875 14.3 9.84375 14.2875 9.84375 14.2875L9.81875 14.3375C9.81875 14.3375 9.59375 14.35 9.36875 14.225C9.28125 14.175 9.20625 14.1125 9.15625 14.0625H9.23125Z" fill="url(#paint34_linear_10001_3135)"/>
<path d="M8.6875 14.4133L8.7125 14.3633C8.7125 14.3633 8.775 14.6133 9.05 14.7633C9.3 14.9008 9.525 14.8258 9.525 14.8258L9.5 14.8758C9.5 14.8758 9.3 14.9633 9.025 14.8133C8.7375 14.6508 8.6875 14.4133 8.6875 14.4133Z" fill="url(#paint35_linear_10001_3135)"/>
<path d="M8.375 14.9484L8.4 14.8984C8.4 14.8984 8.425 15.1609 8.725 15.3234C9 15.4734 9.2125 15.3609 9.2125 15.3609L9.175 15.4109C9.175 15.4109 8.9875 15.5484 8.6875 15.3734C8.375 15.1984 8.375 14.9484 8.375 14.9484Z" fill="url(#paint36_linear_10001_3135)"/>
<path d="M12.4266 18.2734L17.7766 7.03594L16.4266 6.39844L10.8516 18.0859C10.8516 18.0859 11.0266 18.1734 11.2516 18.2734H12.4266Z" fill="url(#paint37_linear_10001_3135)"/>
<path d="M15.5906 5.72656L18.0906 6.91406V10.5016C17.2281 10.0891 11.4531 7.33906 11.4531 7.33906C11.4531 7.33906 11.8531 6.50156 12.2281 5.72656H15.5906Z" fill="url(#paint38_radial_10001_3135)"/>
<path d="M9.38991 17.7767C9.35241 17.8517 9.28991 17.9392 9.30241 18.0767C9.31491 18.5892 10.1524 19.0642 10.6399 19.0642C10.9774 19.0642 11.0899 18.9267 11.2149 18.6767C11.3399 18.4267 9.52741 17.4767 9.38991 17.7767Z" fill="url(#paint39_radial_10001_3135)"/>
<path d="M15.15 7.13672C15.15 7.13672 16.4375 7.44922 16.5375 7.53672C16.6375 7.62422 16.375 8.12422 16.325 8.19922C15.9125 8.69922 14.625 11.4617 14.625 11.4617L13.4375 10.7867C13.4375 10.7867 14.5 8.81172 14.875 8.11172C15.1125 7.63672 15.15 7.13672 15.15 7.13672Z" fill="url(#paint40_linear_10001_3135)"/>
<path d="M18.1305 6.48748C18.3555 6.64998 18.6555 6.61248 18.893 6.57498C19.0555 6.54998 18.8055 6.78748 18.5305 7.33748C18.2555 7.88748 18.268 7.92498 18.2305 7.88748C18.193 7.84998 16.9555 7.14998 16.993 7.08748C17.043 7.02498 17.243 5.66248 17.343 5.69998C17.7055 5.78748 17.768 6.22498 18.1305 6.48748Z" fill="url(#paint41_linear_10001_3135)"/>
<path d="M16.2051 8.02656C16.2926 7.88906 16.6926 7.03906 17.3301 7.03906C17.6176 7.03906 18.1676 7.76406 18.2176 7.86406C18.2551 7.95156 18.1301 8.30156 18.0676 8.13906C17.9926 7.95156 17.6801 7.55156 17.3426 7.55156C17.0051 7.55156 16.5426 7.93906 16.4301 8.07656C16.3176 8.20156 16.1176 8.16406 16.2051 8.02656Z" fill="url(#paint42_linear_10001_3135)"/>
<path d="M16.1798 7.97399C16.2423 7.87399 16.5298 7.43649 16.6673 7.29899C16.8048 7.16149 17.1548 6.79899 17.4548 6.74899C17.7548 6.69899 18.0673 7.31149 17.9673 7.43649C17.8923 7.52399 17.7673 7.42399 17.6173 7.29899C17.4673 7.18649 17.3673 6.96149 16.8923 7.32399C16.7298 7.44899 16.5673 7.54899 16.1923 8.08649C16.0923 8.22399 16.1173 8.07399 16.1798 7.97399Z" fill="url(#paint43_linear_10001_3135)"/>
<path d="M14.6274 11.6264C14.6774 11.5264 14.7399 11.3764 14.6024 11.2639C14.4524 11.1514 13.7524 10.7764 13.6274 10.7514C13.5024 10.7264 13.4024 10.7514 13.3524 10.8389C13.3024 10.9264 9.46492 17.5014 9.38992 17.6889C9.31492 17.8764 9.30242 18.0139 9.41492 18.0514C9.52742 18.0889 10.8149 18.7014 10.9399 18.8389C11.0649 18.9764 11.1274 18.8264 11.1774 18.7514C11.4149 18.4514 14.5649 11.7264 14.6274 11.6264Z" fill="url(#paint44_linear_10001_3135)"/>
<path d="M16.2641 7.95C16.3266 7.8625 16.4766 7.6125 16.6641 7.3875C16.7891 7.2375 17.4641 6.9125 17.6141 6.3875C17.7016 6.1 17.5641 5.8125 17.3766 5.6875C16.7391 5.3 15.6391 4.6875 14.0266 4.6875C12.9391 4.6875 12.4766 5.05 12.4766 5.05H13.0266L14.9391 5.8L15.1766 6.8C15.1766 6.8 15.2016 7.1375 15.0891 7.525C15.0141 7.8375 14.9891 8.025 14.8766 8.3375C14.9641 8.375 15.1641 8.2375 15.3891 8.3C15.5891 8.35 15.7141 8.625 15.8516 8.4625C16.0891 8.15 16.1641 8.0875 16.2641 7.95Z" fill="url(#paint45_linear_10001_3135)"/>
<path d="M15.1438 7.17444C15.0438 6.24944 14.8187 5.37444 12.4688 5.38694C12.6188 5.23694 12.9812 5.08694 12.9812 5.08694L12.4688 5.04944C12.4688 5.04944 12.5438 4.98694 12.6938 4.97444C14.0688 4.86194 15.2938 5.14944 15.2063 6.93694C15.1938 7.22444 15.1688 7.34944 15.1438 7.17444Z" fill="url(#paint46_linear_10001_3135)"/>
<path d="M12.4688 5.38662C12.6312 5.32412 12.8562 5.28662 13.2812 5.31162C13.8062 5.33662 14.4688 5.53662 14.7438 5.78662C14.8813 5.91162 14.8688 5.81162 14.7188 5.64912C14.3312 5.19912 13.7437 5.09912 12.9812 5.08662C12.8937 5.07412 12.6063 5.23662 12.4688 5.38662Z" fill="url(#paint47_linear_10001_3135)"/>
<path d="M18.9187 6.57422L19.6062 6.92422C19.6062 6.92422 19.3438 7.27422 19.1313 7.67422C18.9063 8.09922 18.7563 8.56172 18.7563 8.56172L18.0938 8.16172C18.0938 8.16172 18.2563 7.71172 18.4938 7.27422C18.6813 6.91172 18.9187 6.57422 18.9187 6.57422Z" fill="url(#paint48_linear_10001_3135)"/>
<path d="M19.6052 6.92314C19.6552 6.94814 19.4927 7.33564 19.2552 7.78564C19.0177 8.23564 18.7927 8.58564 18.7552 8.56064C18.7052 8.53564 18.8677 8.14814 19.1052 7.69814C19.3302 7.24814 19.5552 6.89814 19.6052 6.92314Z" fill="#BFC0D0"/>
</g>
<defs>
<linearGradient id="paint0_linear_10001_3135" x1="11.8231" y1="18.2722" x2="11.8231" y2="5.72456" gradientUnits="userSpaceOnUse">
<stop stop-color="#1578E4"/>
<stop offset="1" stop-color="#00C3F2"/>
</linearGradient>
<linearGradient id="paint1_linear_10001_3135" x1="15.5796" y1="13.9567" x2="15.5796" y2="13.0214" gradientUnits="userSpaceOnUse">
<stop stop-color="#1492E7"/>
<stop offset="1" stop-color="#DBEDFB"/>
</linearGradient>
<linearGradient id="paint2_linear_10001_3135" x1="14.9615" y1="13.9567" x2="14.9615" y2="13.0214" gradientUnits="userSpaceOnUse">
<stop stop-color="#1492E7"/>
<stop offset="1" stop-color="#DBEDFB"/>
</linearGradient>
<linearGradient id="paint3_linear_10001_3135" x1="11.8199" y1="13.9567" x2="11.8199" y2="13.0214" gradientUnits="userSpaceOnUse">
<stop stop-color="#1492E7"/>
<stop offset="1" stop-color="#DBEDFB"/>
</linearGradient>
<linearGradient id="paint4_linear_10001_3135" x1="11.2003" y1="13.9567" x2="11.2003" y2="13.0214" gradientUnits="userSpaceOnUse">
<stop stop-color="#1492E7"/>
<stop offset="1" stop-color="#DBEDFB"/>
</linearGradient>
<linearGradient id="paint5_linear_10001_3135" x1="10.5729" y1="13.9567" x2="10.5729" y2="13.0214" gradientUnits="userSpaceOnUse">
<stop stop-color="#1492E7"/>
<stop offset="1" stop-color="#DBEDFB"/>
</linearGradient>
<linearGradient id="paint6_linear_10001_3135" x1="9.94537" y1="13.9567" x2="9.94537" y2="13.0214" gradientUnits="userSpaceOnUse">
<stop stop-color="#1492E7"/>
<stop offset="1" stop-color="#DBEDFB"/>
</linearGradient>
<linearGradient id="paint7_linear_10001_3135" x1="9.32256" y1="13.9567" x2="9.32256" y2="13.0214" gradientUnits="userSpaceOnUse">
<stop stop-color="#1492E7"/>
<stop offset="1" stop-color="#DBEDFB"/>
</linearGradient>
<linearGradient id="paint8_linear_10001_3135" x1="8.68619" y1="13.9567" x2="8.68619" y2="13.0214" gradientUnits="userSpaceOnUse">
<stop stop-color="#1492E7"/>
<stop offset="1" stop-color="#DBEDFB"/>
</linearGradient>
<linearGradient id="paint9_linear_10001_3135" x1="8.06181" y1="13.9567" x2="8.06181" y2="13.0214" gradientUnits="userSpaceOnUse">
<stop stop-color="#1492E7"/>
<stop offset="1" stop-color="#DBEDFB"/>
</linearGradient>
<linearGradient id="paint10_linear_10001_3135" x1="13.0261" y1="15.7821" x2="13.0261" y2="8.08109" gradientUnits="userSpaceOnUse">
<stop stop-color="#1285E7"/>
<stop offset="1" stop-color="#00B5EF"/>
</linearGradient>
<linearGradient id="paint11_linear_10001_3135" x1="14.7596" y1="15.7465" x2="10.5867" y2="8.51872" gradientUnits="userSpaceOnUse">
<stop stop-color="#2B90E7"/>
<stop offset="1" stop-color="#00B6EF"/>
</linearGradient>
<linearGradient id="paint12_linear_10001_3135" x1="14.9622" y1="15.7909" x2="10.651" y2="8.32363" gradientUnits="userSpaceOnUse">
<stop stop-color="#3795EA"/>
<stop offset="1" stop-color="#49C4F2"/>
</linearGradient>
<linearGradient id="paint13_linear_10001_3135" x1="15.2032" y1="15.7161" x2="10.834" y2="8.14834" gradientUnits="userSpaceOnUse">
<stop stop-color="#3696EA"/>
<stop offset="1" stop-color="#90D9F6"/>
</linearGradient>
<linearGradient id="paint14_linear_10001_3135" x1="15.3977" y1="15.5407" x2="11.0831" y2="8.06759" gradientUnits="userSpaceOnUse">
<stop stop-color="#3097EA"/>
<stop offset="1" stop-color="#B5E5F9"/>
</linearGradient>
<linearGradient id="paint15_linear_10001_3135" x1="15.4666" y1="15.3357" x2="11.2989" y2="8.117" gradientUnits="userSpaceOnUse">
<stop stop-color="#3A98EA"/>
<stop offset="1" stop-color="#BCE7FA"/>
</linearGradient>
<linearGradient id="paint16_linear_10001_3135" x1="12.3226" y1="11.6548" x2="13.1321" y2="11.1874" gradientUnits="userSpaceOnUse">
<stop stop-color="#00A4EC"/>
<stop offset="1" stop-color="#B9DFF6"/>
</linearGradient>
<linearGradient id="paint17_linear_10001_3135" x1="12.014" y1="11.1125" x2="12.8234" y2="10.6451" gradientUnits="userSpaceOnUse">
<stop stop-color="#00A4EC"/>
<stop offset="1" stop-color="#B9DFF6"/>
</linearGradient>
<linearGradient id="paint18_linear_10001_3135" x1="11.0678" y1="9.47773" x2="11.8721" y2="9.01348" gradientUnits="userSpaceOnUse">
<stop stop-color="#00B4EF"/>
<stop offset="1" stop-color="#C3E9FA"/>
</linearGradient>
<linearGradient id="paint19_linear_10001_3135" x1="10.7551" y1="8.93528" x2="11.5646" y2="8.46791" gradientUnits="userSpaceOnUse">
<stop stop-color="#00B4EF"/>
<stop offset="1" stop-color="#C3E9FA"/>
</linearGradient>
<linearGradient id="paint20_linear_10001_3135" x1="10.6494" y1="15.7998" x2="10.6494" y2="8.09897" gradientUnits="userSpaceOnUse">
<stop stop-color="#1285E7"/>
<stop offset="1" stop-color="#00B5EF"/>
</linearGradient>
<linearGradient id="paint21_linear_10001_3135" x1="8.91325" y1="15.7679" x2="13.0861" y2="8.54044" gradientUnits="userSpaceOnUse">
<stop stop-color="#3194E9"/>
<stop offset="1" stop-color="#71CFF4"/>
</linearGradient>
<linearGradient id="paint22_linear_10001_3135" x1="8.70787" y1="15.8095" x2="13.0196" y2="8.34122" gradientUnits="userSpaceOnUse">
<stop stop-color="#5AA6EC"/>
<stop offset="1" stop-color="#A2DEF8"/>
</linearGradient>
<linearGradient id="paint23_linear_10001_3135" x1="8.46788" y1="15.7372" x2="12.8371" y2="8.16944" gradientUnits="userSpaceOnUse">
<stop stop-color="#66ABEE"/>
<stop offset="1" stop-color="#BEE8FA"/>
</linearGradient>
<linearGradient id="paint24_linear_10001_3135" x1="8.27412" y1="15.5618" x2="12.5887" y2="8.08869" gradientUnits="userSpaceOnUse">
<stop stop-color="#7BB6F0"/>
<stop offset="1" stop-color="#B1E3F9"/>
</linearGradient>
<linearGradient id="paint25_linear_10001_3135" x1="8.20856" y1="15.3574" x2="12.3784" y2="8.13494" gradientUnits="userSpaceOnUse">
<stop stop-color="#5AA6EC"/>
<stop offset="1" stop-color="#AFE3F9"/>
</linearGradient>
<linearGradient id="paint26_linear_10001_3135" x1="12.1249" y1="8.45985" x2="12.9344" y2="8.92722" gradientUnits="userSpaceOnUse">
<stop stop-color="#C1E7FA"/>
<stop offset="1" stop-color="#89D4F5"/>
</linearGradient>
<linearGradient id="paint27_linear_10001_3135" x1="11.807" y1="9.00384" x2="12.6165" y2="9.47109" gradientUnits="userSpaceOnUse">
<stop stop-color="#C1E7FA"/>
<stop offset="1" stop-color="#89D4F5"/>
</linearGradient>
<linearGradient id="paint28_linear_10001_3135" x1="11.4841" y1="9.56156" x2="12.2935" y2="10.0288" gradientUnits="userSpaceOnUse">
<stop stop-color="#C1E7FA"/>
<stop offset="1" stop-color="#89D4F5"/>
</linearGradient>
<linearGradient id="paint29_linear_10001_3135" x1="11.1732" y1="10.1069" x2="11.9826" y2="10.5742" gradientUnits="userSpaceOnUse">
<stop stop-color="#B0DFF8"/>
<stop offset="1" stop-color="#52BDF2"/>
</linearGradient>
<linearGradient id="paint30_linear_10001_3135" x1="10.8594" y1="10.6489" x2="11.669" y2="11.1163" gradientUnits="userSpaceOnUse">
<stop stop-color="#B4DEF8"/>
<stop offset="1" stop-color="#4EB5F0"/>
</linearGradient>
<linearGradient id="paint31_linear_10001_3135" x1="10.5456" y1="11.1949" x2="11.355" y2="11.6622" gradientUnits="userSpaceOnUse">
<stop stop-color="#B4DEF8"/>
<stop offset="1" stop-color="#4EB5F0"/>
</linearGradient>
<linearGradient id="paint32_linear_10001_3135" x1="10.2361" y1="11.7342" x2="11.0454" y2="12.2014" gradientUnits="userSpaceOnUse">
<stop stop-color="#B5DDF8"/>
<stop offset="1" stop-color="#46AEEE"/>
</linearGradient>
<linearGradient id="paint33_linear_10001_3135" x1="9.91844" y1="12.2775" x2="10.7279" y2="12.7449" gradientUnits="userSpaceOnUse">
<stop stop-color="#96CEF4"/>
<stop offset="1" stop-color="#46AAEE"/>
</linearGradient>
<linearGradient id="paint34_linear_10001_3135" x1="9.17112" y1="14.0169" x2="9.79137" y2="14.375" gradientUnits="userSpaceOnUse">
<stop stop-color="#8FC1F2"/>
<stop offset="1" stop-color="#3193EA"/>
</linearGradient>
<linearGradient id="paint35_linear_10001_3135" x1="8.65425" y1="14.4654" x2="9.46375" y2="14.9328" gradientUnits="userSpaceOnUse">
<stop stop-color="#8FC1F2"/>
<stop offset="1" stop-color="#3193EA"/>
</linearGradient>
<linearGradient id="paint36_linear_10001_3135" x1="8.3405" y1="15.0063" x2="9.14988" y2="15.4737" gradientUnits="userSpaceOnUse">
<stop stop-color="#8FC1F2"/>
<stop offset="1" stop-color="#3193EA"/>
</linearGradient>
<linearGradient id="paint37_linear_10001_3135" x1="13.4168" y1="12.1151" x2="14.9739" y2="12.8744" gradientUnits="userSpaceOnUse">
<stop offset="0.001"/>
<stop offset="1" stop-opacity="0"/>
</linearGradient>
<radialGradient id="paint38_radial_10001_3135" cx="0" cy="0" r="1" gradientTransform="matrix(-0.908968 1.80681 -3.12637 -1.573 15.7331 7.14282)" gradientUnits="userSpaceOnUse">
<stop/>
<stop offset="1" stop-opacity="0"/>
</radialGradient>
<radialGradient id="paint39_radial_10001_3135" cx="0" cy="0" r="1" gradientTransform="matrix(0.886788 0.434753 -0.247499 0.504775 10.2283 18.3714)" gradientUnits="userSpaceOnUse">
<stop offset="0.417" stop-color="#0C0C12"/>
<stop offset="1" stop-color="#3D4651"/>
</radialGradient>
<linearGradient id="paint40_linear_10001_3135" x1="14.4197" y1="8.89597" x2="15.6402" y2="9.51784" gradientUnits="userSpaceOnUse">
<stop stop-color="#344351"/>
<stop offset="0.1" stop-color="#9697A0"/>
<stop offset="0.181" stop-color="#8B8C95"/>
<stop offset="0.351" stop-color="#787A83"/>
<stop offset="0.47" stop-color="#71747D"/>
<stop offset="0.591" stop-color="#777982"/>
<stop offset="0.749" stop-color="#87898F"/>
<stop offset="0.8" stop-color="#8E8F94"/>
<stop offset="0.849" stop-color="#3D3B42"/>
<stop offset="0.9" stop-color="#606E84"/>
</linearGradient>
<linearGradient id="paint41_linear_10001_3135" x1="18.566" y1="7.6571" x2="17.1884" y2="5.79548" gradientUnits="userSpaceOnUse">
<stop offset="0.27" stop-color="#262B33"/>
<stop offset="0.45" stop-color="#74747E"/>
<stop offset="0.54" stop-color="#B0B0BC"/>
<stop offset="0.73" stop-color="#74747E"/>
</linearGradient>
<linearGradient id="paint42_linear_10001_3135" x1="16.1479" y1="7.80456" x2="18.182" y2="7.54181" gradientUnits="userSpaceOnUse">
<stop offset="0.14" stop-color="#606E84"/>
<stop offset="0.4" stop-color="#9899A5"/>
<stop offset="0.73" stop-color="#475768"/>
<stop offset="0.92" stop-color="#262B33"/>
</linearGradient>
<linearGradient id="paint43_linear_10001_3135" x1="17.0958" y1="7.97499" x2="16.8984" y2="6.85574" gradientUnits="userSpaceOnUse">
<stop stop-color="#101215" stop-opacity="0.1"/>
<stop offset="0.46" stop-color="#101215" stop-opacity="0.7"/>
<stop offset="0.7" stop-color="#474951"/>
<stop offset="0.91" stop-color="#7B7D88"/>
</linearGradient>
<linearGradient id="paint44_linear_10001_3135" x1="11.0938" y1="14.2165" x2="12.982" y2="15.1456" gradientUnits="userSpaceOnUse">
<stop offset="0.115" stop-color="#2C3952"/>
<stop offset="0.374" stop-color="#3D414E"/>
<stop offset="0.55" stop-color="#474A54"/>
<stop offset="0.754" stop-color="#4E5057"/>
<stop offset="0.892" stop-color="#323945"/>
<stop offset="1" stop-color="#143052"/>
</linearGradient>
<linearGradient id="paint45_linear_10001_3135" x1="14.0151" y1="7.95988" x2="15.4753" y2="4.75587" gradientUnits="userSpaceOnUse">
<stop offset="0.118" stop-color="#6D7078" stop-opacity="0"/>
<stop offset="0.2" stop-color="#6D7078" stop-opacity="0.7"/>
<stop offset="0.34" stop-color="#35363A"/>
<stop offset="0.374" stop-color="#1D1F22"/>
<stop offset="0.4" stop-color="#101215"/>
<stop offset="0.5" stop-color="#16171A"/>
<stop offset="0.56" stop-color="#292A2E"/>
<stop offset="0.688" stop-color="#4B4D51"/>
<stop offset="0.807" stop-color="#63666B"/>
<stop offset="0.915" stop-color="#72757B"/>
<stop offset="1" stop-color="#777A80"/>
</linearGradient>
<linearGradient id="paint46_linear_10001_3135" x1="12.4642" y1="6.10407" x2="15.2095" y2="6.10407" gradientUnits="userSpaceOnUse">
<stop stop-color="#4A4D56"/>
<stop offset="1" stop-color="#29292D"/>
</linearGradient>
<linearGradient id="paint47_linear_10001_3135" x1="12.4642" y1="5.46124" x2="14.838" y2="5.46124" gradientUnits="userSpaceOnUse">
<stop stop-color="#767880"/>
<stop offset="0.41" stop-color="#0C0A0B"/>
</linearGradient>
<linearGradient id="paint48_linear_10001_3135" x1="18.3728" y1="8.34372" x2="19.2946" y2="6.74697" gradientUnits="userSpaceOnUse">
<stop stop-color="#858997"/>
<stop offset="0.23" stop-color="#244668"/>
<stop offset="0.282" stop-color="#1A3249"/>
<stop offset="0.4" stop-color="#040506"/>
<stop offset="0.464" stop-color="#313236"/>
<stop offset="0.546" stop-color="#65656E"/>
<stop offset="0.607" stop-color="#868691"/>
<stop offset="0.64" stop-color="#92929E"/>
</linearGradient>
<clipPath id="clip0_10001_3135">
<rect width="16" height="16" fill="white" transform="translate(3.82812 4)"/>
</clipPath>
</defs>
</svg>
